# file generated by UVMapper
# NumVerts/NumTVerts/NumVNormals/NumFacets   8/24/24/6
# NumGroups/NumMaterials/NumRegions   1/0/0
# x/y/color/ppu   2000/51000/0/50.00000000

v  0.00000000  0.00000000  0.00000000
v  0.00000000  0.00000000  10.00000000
v  0.00000000  1000.00000000  0.00000000
v  0.00000000  1000.00000000  10.00000000
v  10.00000000  0.00000000  0.00000000
v  10.00000000  0.00000000  10.00000000
v  10.00000000  1000.00000000  0.00000000
v  10.00000000  1000.00000000  10.00000000

vt  0.02000000  0.05882353
vt  0.24499999  0.05882353
vt  0.24499999  0.94117647
vt  0.02000000  0.94117647
vt  0.26499999  0.97500002
vt  0.26499999  0.96617651
vt  0.48999998  0.96617651
vt  0.48999998  0.97500002
vt  0.48999998  0.02500000
vt  0.48999998  0.03382353
vt  0.26499999  0.03382353
vt  0.26499999  0.02500000
vt  0.73500001  0.05882353
vt  0.73500001  0.94117647
vt  0.50999999  0.94117647
vt  0.50999999  0.05882353
vt  0.26499999  0.05882353
vt  0.48999998  0.05882353
vt  0.48999998  0.94117647
vt  0.26499999  0.94117647
vt  0.98000002  0.05882353
vt  0.98000002  0.94117647
vt  0.75500000  0.94117647
vt  0.75500000  0.05882353

vn -1.00000000  0.00000000  0.00000000
vn -1.00000000  0.00000000  0.00000000
vn -1.00000000  0.00000000  0.00000000
vn -1.00000000  0.00000000  0.00000000
vn  0.00000000  1.00000000  0.00000000
vn  0.00000000  1.00000000  0.00000000
vn  0.00000000  1.00000000  0.00000000
vn  0.00000000  1.00000000  0.00000000
vn  0.00000000 -1.00000000  0.00000000
vn  0.00000000 -1.00000000  0.00000000
vn  0.00000000 -1.00000000  0.00000000
vn  0.00000000 -1.00000000  0.00000000
vn  1.00000000  0.00000000  0.00000000
vn  1.00000000  0.00000000  0.00000000
vn  1.00000000  0.00000000  0.00000000
vn  1.00000000  0.00000000  0.00000000
vn  0.00000000  0.00000000  1.00000000
vn  0.00000000  0.00000000  1.00000000
vn  0.00000000  0.00000000  1.00000000
vn  0.00000000  0.00000000  1.00000000
vn  0.00000000  0.00000000 -1.00000000
vn  0.00000000  0.00000000 -1.00000000
vn  0.00000000  0.00000000 -1.00000000
vn  0.00000000  0.00000000 -1.00000000

g Box
f 1/1/1 2/2/2 4/3/3 3/4/4
f 3/5/5 4/6/6 8/7/7 7/8/8
f 5/9/9 6/10/10 2/11/11 1/12/12
f 5/13/13 7/14/14 8/15/15 6/16/16
f 2/17/17 6/18/18 8/19/19 4/20/20
f 1/21/21 3/22/22 7/23/23 5/24/24
